<?xml version="1.0" standalone="no"?>
<!DOCTYPE svg PUBLIC "-//W3C//DTD SVG 20010904//EN"
 "http://www.w3.org/TR/2001/REC-SVG-20010904/DTD/svg10.dtd">
<svg version="1.0" xmlns="http://www.w3.org/2000/svg"
 width="512.000000pt" height="512.000000pt" viewBox="0 0 512.000000 512.000000"
 preserveAspectRatio="xMidYMid meet">
<metadata>
Created by potrace 1.14, written by Peter Selinger 2001-2017
</metadata>
<g transform="translate(0.000000,512.000000) scale(0.100000,-0.100000)"
fill="#000000" stroke="none">
<path d="M733 4690 c-3 -11 -10 -20 -15 -20 -5 0 -6 5 -2 11 3 6 -5 3 -19 -6
-15 -9 -31 -14 -38 -10 -6 4 -15 1 -20 -6 -6 -10 -9 -11 -9 -1 0 6 -4 12 -10
12 -5 0 -7 -7 -3 -16 5 -14 3 -15 -15 -5 -19 10 -21 9 -15 -5 4 -11 2 -15 -4
-11 -6 4 -14 1 -16 -5 -4 -10 -8 -9 -17 2 -10 13 -11 13 -8 0 3 -18 -42 -81
-53 -74 -4 2 -11 -1 -15 -7 -4 -8 -3 -9 4 -5 7 4 12 2 12 -3 0 -6 -8 -11 -17
-11 -14 0 -15 -2 -4 -9 8 -6 10 -14 5 -22 -5 -8 -9 -21 -11 -29 -1 -8 -10 -20
-19 -27 -17 -12 -17 -13 2 -14 18 0 18 -1 -1 -9 -11 -5 -14 -9 -7 -9 6 -1 12
-8 12 -17 0 -8 -4 -13 -8 -10 -5 3 -9 -1 -9 -9 0 -8 4 -12 9 -9 4 3 8 0 8 -5
0 -6 -6 -11 -12 -11 -9 0 -9 -3 -3 -8 14 -9 17 -52 4 -52 -5 0 -9 -5 -9 -11 0
-5 4 -8 8 -5 4 2 8 -6 8 -19 0 -13 -4 -21 -8 -19 -4 3 -8 0 -8 -5 0 -6 5 -11
10 -11 6 0 10 -5 10 -11 0 -5 -4 -7 -10 -4 -6 3 -10 1 -10 -4 0 -6 4 -11 8
-11 4 0 8 -70 8 -155 0 -86 -3 -150 -8 -143 -6 10 -8 8 -8 -4 0 -10 3 -18 8
-18 4 0 7 -24 8 -54 1 -45 -2 -53 -15 -49 -14 4 -14 3 -1 -9 9 -8 16 -33 16
-67 1 -34 -1 -49 -7 -40 -7 11 -9 10 -9 -3 0 -10 3 -18 8 -18 4 0 8 -42 8 -94
0 -81 -2 -93 -15 -89 -14 4 -14 3 -1 -9 9 -8 16 -33 16 -67 1 -34 -1 -49 -7
-40 -7 11 -9 10 -9 -3 0 -10 4 -18 8 -18 4 0 8 -88 8 -195 0 -108 -3 -190 -8
-183 -6 10 -8 8 -8 -4 0 -10 3 -18 8 -18 4 0 8 -13 8 -30 1 -16 -2 -30 -7 -30
-5 0 -9 -5 -9 -11 0 -5 4 -8 8 -5 4 2 8 -6 8 -19 0 -13 -4 -21 -8 -19 -4 3 -8
0 -8 -5 0 -6 5 -11 10 -11 6 0 10 -5 10 -11 0 -5 -4 -7 -10 -4 -5 3 -10 1 -10
-4 0 -6 3 -11 8 -11 4 0 8 -24 8 -54 1 -45 -2 -53 -15 -49 -14 4 -14 3 -1 -9
9 -8 16 -33 16 -67 1 -34 -1 -49 -7 -40 -7 11 -9 10 -9 -3 0 -10 3 -18 8 -18
4 0 8 -32 8 -70 1 -38 -3 -70 -8 -70 -4 0 -8 -5 -8 -11 0 -5 4 -8 8 -5 4 2 8
-6 8 -19 0 -13 -4 -21 -8 -19 -4 3 -8 0 -8 -5 0 -6 5 -11 10 -11 6 0 10 -5 10
-11 0 -5 -5 -7 -10 -4 -6 3 -10 1 -10 -4 0 -6 4 -11 8 -11 4 0 8 -70 8 -155 0
-86 -3 -150 -8 -143 -6 10 -8 8 -8 -4 0 -10 3 -18 8 -18 4 0 7 -24 8 -54 1
-45 -2 -53 -15 -49 -14 4 -14 3 -1 -9 9 -8 16 -33 16 -67 1 -34 -1 -49 -7 -40
-7 11 -9 10 -9 -3 0 -10 3 -18 8 -18 4 0 8 -42 8 -94 0 -81 -2 -93 -15 -89
-14 4 -14 3 -1 -9 9 -8 16 -33 16 -67 1 -34 -1 -49 -7 -40 -7 11 -9 10 -9 -3
0 -10 4 -18 8 -18 4 0 8 -88 8 -195 0 -108 -3 -190 -8 -183 -6 10 -8 8 -8 -4
0 -10 3 -18 8 -18 4 0 8 -13 8 -30 1 -16 -2 -30 -7 -30 -5 0 -9 -5 -9 -11 0
-5 4 -8 8 -5 4 2 8 -6 8 -19 0 -13 -4 -21 -8 -19 -4 3 -8 0 -8 -5 0 -6 5 -11
10 -11 6 0 10 -5 10 -11 0 -5 -4 -7 -10 -4 -5 3 -10 1 -10 -4 0 -6 4 -11 8
-11 5 0 9 -20 9 -45 1 -27 -4 -45 -11 -45 -6 0 -4 -5 4 -10 13 -9 13 -10 0
-10 -13 0 -13 -1 0 -10 12 -8 13 -13 3 -29 -11 -18 -10 -19 5 -14 16 6 16 5
-1 -14 -12 -14 -15 -23 -7 -28 6 -3 9 -1 8 6 -2 6 3 14 11 17 10 3 12 0 8 -10
-3 -9 0 -21 6 -28 9 -10 9 -11 0 -6 -7 4 -13 2 -13 -3 0 -6 6 -11 13 -11 15 0
40 -37 32 -49 -2 -5 5 -11 16 -14 14 -4 18 -10 13 -18 -5 -9 -2 -10 9 -6 10 3
17 3 17 -1 0 -9 91 -48 102 -45 5 2 8 -2 8 -8 0 -5 5 -7 10 -4 6 4 18 1 26 -6
10 -8 18 -9 22 -3 8 12 62 14 62 2 0 -4 10 -12 23 -18 20 -10 20 -10 5 3 -22
17 -23 27 -3 27 8 0 15 -4 15 -10 0 -5 8 -10 18 -10 13 0 14 2 4 9 -8 4 19 8
62 7 42 0 76 -4 76 -8 0 -4 5 -8 11 -8 5 0 7 5 4 10 -3 6 -1 10 4 10 6 0 11
-4 11 -10 0 -5 5 -10 11 -10 5 0 8 4 5 8 -2 4 6 8 19 8 13 0 21 -4 19 -8 -3
-4 0 -8 5 -8 6 0 11 4 11 8 0 5 32 9 70 8 39 0 70 -4 70 -8 0 -5 8 -8 18 -8
13 0 14 2 3 9 -9 6 6 8 40 7 34 0 59 -7 67 -16 12 -13 13 -13 9 1 -4 13 4 16
49 15 30 0 54 -4 54 -8 0 -5 5 -8 11 -8 5 0 7 4 4 10 -3 5 -1 10 4 10 6 0 11
-4 11 -10 0 -5 5 -10 11 -10 5 0 8 4 5 8 -2 4 6 8 19 8 13 0 21 -4 19 -8 -3
-4 0 -8 5 -8 6 0 11 4 11 9 0 5 14 8 30 7 17 0 30 -4 30 -8 0 -5 8 -8 18 -8
12 0 14 2 4 8 -7 5 75 8 183 8 107 0 195 -4 195 -8 0 -4 8 -8 18 -8 13 0 14 2
3 9 -9 6 6 8 40 7 34 0 59 -7 67 -16 12 -13 13 -13 9 1 -4 13 8 15 89 15 52 0
94 -4 94 -8 0 -5 8 -8 18 -8 13 0 14 2 3 9 -9 6 6 8 40 7 34 0 59 -7 67 -16
12 -13 13 -13 9 1 -4 13 4 16 49 15 30 -1 54 -4 54 -8 0 -5 8 -8 18 -8 12 0
14 2 4 8 -7 5 57 8 143 8 85 0 155 -4 155 -8 0 -4 5 -8 11 -8 5 0 7 5 4 10 -3
6 -1 10 4 10 6 0 11 -4 11 -10 0 -5 5 -10 11 -10 5 0 8 4 5 8 -2 4 6 8 19 8
13 0 21 -4 19 -8 -3 -4 0 -8 5 -8 6 0 11 4 11 8 0 5 32 9 70 8 39 0 70 -4 70
-8 0 -5 8 -8 18 -8 13 0 14 2 3 9 -9 6 6 8 40 7 34 0 59 -7 67 -16 12 -13 13
-13 9 1 -4 13 4 16 49 15 30 0 54 -4 54 -8 0 -5 5 -8 11 -8 5 0 7 5 4 10 -3 6
-1 10 4 10 6 0 11 -4 11 -10 0 -5 5 -10 11 -10 5 0 8 4 5 8 -2 4 6 8 19 8 13
0 21 -4 19 -8 -3 -4 0 -8 5 -8 6 0 11 4 11 9 0 5 14 8 30 7 17 0 30 -4 30 -8
0 -5 8 -8 18 -8 12 0 14 2 4 8 -7 5 75 8 183 8 107 0 195 -4 195 -8 0 -4 8 -8
18 -8 13 0 14 2 3 9 -9 6 6 8 40 7 34 0 59 -7 67 -16 12 -13 13 -13 9 1 -4 13
8 15 89 15 52 0 94 -4 94 -8 0 -5 8 -8 18 -8 13 0 14 2 3 9 -9 6 -6 8 12 8 16
0 28 -6 30 -16 4 -14 5 -14 6 2 1 18 31 25 31 7 0 -5 5 -10 11 -10 5 0 7 4 4
10 -3 6 5 11 19 11 14 1 29 2 34 3 74 17 99 18 94 3 -1 -5 2 -6 7 -2 6 3 8 12
5 20 -4 9 3 19 19 26 14 6 30 22 36 36 7 15 17 23 25 20 10 -4 12 0 9 14 -3
10 -1 19 5 19 6 0 12 10 14 23 2 12 8 21 14 20 6 -1 11 4 11 12 0 8 -5 12 -10
8 -5 -3 -6 8 -1 28 4 19 7 42 6 51 -1 16 10 23 31 19 5 -1 6 3 2 8 -3 6 -11 8
-18 5 -9 -3 -13 12 -13 55 -1 50 2 58 15 54 14 -4 14 -3 1 9 -9 8 -16 33 -16
67 -1 34 1 49 7 40 7 -11 9 -10 9 4 0 9 -3 17 -8 17 -4 0 -8 32 -8 70 -1 39 3
70 8 70 4 0 8 5 8 11 0 5 -4 8 -8 5 -4 -2 -8 6 -8 19 0 13 4 21 8 19 4 -3 8 0
8 5 0 6 -4 11 -10 11 -5 0 -10 5 -10 11 0 5 5 7 10 4 6 -3 10 -1 10 4 0 6 -4
11 -8 11 -5 0 -9 14 -9 30 0 17 4 30 9 30 4 0 8 5 8 11 0 5 -4 8 -8 5 -4 -2
-8 6 -8 19 0 13 4 21 8 19 4 -3 8 0 8 5 0 6 -4 11 -10 11 -5 0 -10 5 -10 11 0
5 5 7 10 4 6 -3 10 -1 10 4 0 6 -3 11 -8 11 -4 0 -8 24 -8 54 -1 45 2 53 15
49 14 -4 14 -3 1 9 -9 8 -16 33 -16 67 -1 34 1 49 7 40 7 -11 9 -10 9 4 0 9
-3 17 -8 17 -4 0 -8 32 -8 70 -1 39 3 70 8 70 4 0 8 5 8 11 0 5 -4 8 -8 5 -4
-2 -8 6 -8 19 0 13 4 21 8 19 4 -3 8 0 8 5 0 6 -4 11 -10 11 -5 0 -10 5 -10
11 0 5 5 7 10 4 6 -3 10 -1 10 4 0 6 -4 11 -8 11 -5 0 -9 14 -9 30 0 17 4 30
9 30 4 0 8 5 8 11 0 5 -4 8 -8 5 -4 -2 -8 6 -8 19 0 13 4 21 8 19 4 -3 8 0 8
5 0 6 -4 11 -10 11 -5 0 -10 5 -10 11 0 5 5 7 10 4 6 -3 10 -1 10 4 0 6 -3 11
-8 11 -4 0 -8 24 -8 54 -1 45 2 53 15 49 14 -4 14 -3 1 9 -9 8 -16 33 -16 67
-1 34 1 49 7 40 7 -11 9 -10 9 4 0 9 -3 17 -8 17 -4 0 -8 32 -8 70 -1 39 3 70
8 70 4 0 8 5 8 11 0 5 -4 8 -8 5 -4 -2 -8 6 -8 19 0 13 4 21 8 19 4 -3 8 0 8
5 0 6 -4 11 -10 11 -5 0 -10 5 -10 11 0 5 4 7 10 4 6 -3 10 -1 10 4 0 6 -4 11
-8 11 -5 0 -9 14 -9 30 0 17 4 30 9 30 4 0 8 5 8 11 0 5 -4 8 -8 5 -4 -2 -8 6
-8 19 0 13 4 21 8 19 4 -3 8 0 8 5 0 6 -4 11 -10 11 -5 0 -10 5 -10 11 0 5 4
7 10 4 6 -3 10 -1 10 4 0 6 -3 11 -8 11 -4 0 -8 24 -8 54 -1 45 2 53 15 49 14
-4 14 -3 1 9 -9 8 -16 33 -16 67 -1 34 1 49 7 40 7 -11 9 -10 9 4 0 9 -3 17
-8 17 -4 0 -8 32 -8 70 -1 39 3 70 8 70 4 0 8 5 8 11 0 5 -4 8 -8 5 -4 -2 -8
6 -8 19 0 13 4 21 8 19 4 -3 8 0 8 5 0 6 -4 11 -10 11 -5 0 -10 5 -10 11 0 5
4 7 10 4 6 -3 10 -1 10 4 0 6 -4 11 -8 11 -5 0 -9 14 -9 30 0 17 4 30 9 30 4
0 8 5 8 11 0 5 -4 8 -8 5 -4 -2 -8 6 -8 19 0 13 4 21 8 19 4 -3 8 0 8 5 0 6
-4 11 -10 11 -5 0 -10 5 -10 11 0 5 5 7 10 4 6 -3 10 -1 10 4 0 6 -3 11 -8 11
-4 0 -8 24 -8 54 -1 45 2 53 15 49 14 -4 14 -3 1 9 -9 8 -16 33 -16 67 -1 34
1 49 7 40 7 -11 9 -10 9 4 0 9 -3 17 -8 17 -4 0 -8 32 -8 70 -1 39 3 70 8 70
4 0 8 5 8 11 0 5 -4 8 -8 5 -4 -2 -8 6 -8 19 0 13 4 21 8 19 4 -3 8 0 8 5 0 6
-4 11 -10 11 -5 0 -10 5 -10 11 0 5 5 7 10 4 6 -3 10 -1 10 4 0 6 -4 11 -8 11
-5 0 -9 14 -9 30 0 17 4 30 9 30 4 0 8 5 8 11 0 5 -4 8 -8 5 -4 -2 -8 6 -8 19
0 13 4 21 8 19 4 -3 8 0 8 5 0 6 -4 11 -10 11 -5 0 -10 5 -10 11 0 5 4 7 10 4
6 -3 10 -1 10 4 0 6 -3 11 -8 11 -4 0 -8 24 -8 54 -1 45 2 53 15 49 14 -4 14
-3 1 9 -9 8 -16 33 -16 67 -1 34 1 49 7 40 7 -11 9 -10 9 4 0 9 -3 17 -8 17
-4 0 -8 32 -8 70 -1 45 3 70 10 70 6 0 4 5 -4 10 -13 9 -13 10 0 10 13 0 13 1
0 10 -8 5 -11 12 -7 16 4 4 2 13 -4 21 -9 10 -8 13 5 13 9 0 16 5 16 11 0 5
-4 7 -10 4 -5 -3 -10 1 -10 9 0 9 -4 16 -10 16 -14 0 -12 27 3 33 7 3 4 6 -6
6 -10 1 -15 6 -12 11 3 6 0 10 -7 10 -9 0 -9 3 2 10 13 8 13 10 -2 10 -9 0
-19 9 -23 19 -3 11 -15 23 -25 26 -12 4 -17 12 -13 22 4 9 2 14 -3 11 -12 -7
-57 10 -51 19 3 5 -5 9 -16 9 -21 2 -67 9 -97 16 -8 2 -18 8 -22 13 -5 6 -8 5
-8 -2 0 -18 -121 -12 -138 7 -12 13 -13 13 -9 -1 4 -13 -8 -15 -89 -15 -52 0
-94 4 -94 8 0 5 -8 8 -17 8 -14 0 -15 -2 -4 -9 9 -6 -6 -8 -40 -7 -34 0 -59 7
-67 16 -12 13 -13 13 -9 -1 4 -13 -4 -16 -49 -15 -30 1 -54 4 -54 8 0 5 -8 8
-17 8 -13 0 -15 -2 -5 -8 7 -5 -57 -8 -143 -8 -85 0 -155 4 -155 8 0 4 -5 8
-11 8 -5 0 -7 -4 -4 -10 3 -5 1 -10 -4 -10 -6 0 -11 5 -11 10 0 6 -5 10 -11
10 -5 0 -8 -4 -5 -8 2 -4 -6 -8 -19 -8 -13 0 -21 4 -19 8 3 4 0 8 -5 8 -6 0
-11 -4 -11 -8 0 -5 -31 -9 -70 -8 -38 0 -70 4 -70 8 0 5 -8 8 -17 8 -14 0 -15
-2 -4 -9 9 -6 -6 -8 -40 -7 -34 0 -59 7 -67 16 -12 13 -13 13 -9 -1 4 -13 -4
-16 -49 -15 -30 0 -54 4 -54 8 0 5 -5 8 -11 8 -5 0 -7 -4 -4 -10 3 -5 1 -10
-4 -10 -6 0 -11 5 -11 10 0 6 -5 10 -11 10 -5 0 -8 -4 -5 -8 2 -4 -6 -8 -19
-8 -13 0 -21 4 -19 8 3 4 0 8 -5 8 -6 0 -11 -4 -11 -9 0 -5 -13 -8 -30 -7 -16
0 -30 4 -30 8 0 5 -8 8 -17 8 -13 0 -15 -2 -5 -8 7 -5 -75 -8 -183 -8 -107 0
-195 4 -195 8 0 4 -8 8 -17 8 -14 0 -15 -2 -4 -9 9 -6 -6 -8 -40 -7 -34 0 -59
7 -67 16 -12 13 -13 13 -9 -1 4 -13 -8 -15 -89 -15 -52 0 -94 4 -94 8 0 5 -8
8 -17 8 -14 0 -15 -2 -4 -9 9 -6 -6 -8 -40 -7 -34 0 -59 7 -67 16 -12 13 -13
13 -9 -1 4 -13 -4 -16 -49 -15 -30 1 -54 4 -54 8 0 5 -8 8 -17 8 -13 0 -15 -2
-5 -8 7 -5 -57 -8 -143 -8 -85 0 -155 4 -155 8 0 4 -5 8 -11 8 -5 0 -7 -4 -4
-10 3 -5 1 -10 -4 -10 -6 0 -11 5 -11 10 0 6 -5 10 -11 10 -5 0 -8 -4 -5 -8 2
-4 -6 -8 -19 -8 -13 0 -21 4 -19 8 3 4 0 8 -5 8 -6 0 -11 -4 -11 -8 0 -5 -31
-9 -70 -8 -38 0 -70 4 -70 8 0 5 -8 8 -17 8 -14 0 -15 -2 -4 -9 9 -6 -6 -8
-40 -7 -34 0 -59 7 -67 16 -12 13 -13 13 -9 -1 4 -13 -4 -16 -49 -15 -30 0
-54 4 -54 8 0 5 -5 8 -11 8 -5 0 -7 -4 -4 -10 3 -5 1 -10 -4 -10 -6 0 -11 5
-11 10 0 6 -5 10 -11 10 -5 0 -8 -4 -5 -8 2 -4 -6 -8 -19 -8 -13 0 -21 4 -19
8 3 4 0 8 -5 8 -6 0 -11 -4 -11 -9 0 -5 -13 -8 -30 -7 -16 0 -30 4 -30 8 0 5
-8 8 -17 8 -14 0 -15 -2 -5 -9 8 -5 -13 -8 -52 -7 -36 0 -66 4 -66 8 0 4 -5 8
-11 8 -5 0 -7 -4 -4 -10 3 -5 -4 -10 -16 -10 -16 0 -20 5 -16 20 3 11 3 20 0
20 -3 0 -7 -9 -10 -20z"/>
<path d="M870 4700 c0 -5 5 -10 11 -10 5 0 7 5 4 10 -3 6 -8 10 -11 10 -2 0
-4 -4 -4 -10z"/>
<path d="M936 4698 c3 -4 14 -6 24 -5 31 5 32 13 1 12 -16 0 -27 -3 -25 -7z"/>
<path d="M1230 4700 c-9 -6 -10 -10 -3 -10 6 0 15 5 18 10 8 12 4 12 -15 0z"/>
<path d="M1273 4695 c0 -8 4 -12 9 -9 5 3 6 10 3 15 -9 13 -12 11 -12 -6z"/>
<path d="M1337 4699 c7 -7 15 -10 18 -7 3 3 -2 9 -12 12 -14 6 -15 5 -6 -5z"/>
<path d="M1434 4698 c-4 -5 -3 -12 0 -15 3 -4 6 -1 6 6 0 7 4 10 9 6 5 -3 12
-2 15 3 3 5 -2 9 -10 9 -8 0 -17 -4 -20 -9z"/>
<path d="M1670 4700 c0 -5 5 -10 11 -10 5 0 7 5 4 10 -3 6 -8 10 -11 10 -2 0
-4 -4 -4 -10z"/>
<path d="M1830 4700 c0 -5 5 -10 11 -10 5 0 7 5 4 10 -3 6 -8 10 -11 10 -2 0
-4 -4 -4 -10z"/>
<path d="M1897 4699 c7 -7 15 -10 18 -7 3 3 -2 9 -12 12 -14 6 -15 5 -6 -5z"/>
<path d="M2030 4700 c-9 -6 -10 -10 -3 -10 6 0 15 5 18 10 8 12 4 12 -15 0z"/>
<path d="M2073 4695 c0 -8 4 -12 9 -9 5 3 6 10 3 15 -9 13 -12 11 -12 -6z"/>
<path d="M2137 4699 c7 -7 15 -10 18 -7 3 3 -2 9 -12 12 -14 6 -15 5 -6 -5z"/>
<path d="M2350 4700 c-9 -6 -10 -10 -3 -10 6 0 15 5 18 10 8 12 4 12 -15 0z"/>
<path d="M2393 4695 c0 -8 4 -12 9 -9 5 3 6 10 3 15 -9 13 -12 11 -12 -6z"/>
<path d="M2457 4699 c7 -7 15 -10 18 -7 3 3 -2 9 -12 12 -14 6 -15 5 -6 -5z"/>
<path d="M2630 4700 c0 -5 5 -10 11 -10 5 0 7 5 4 10 -3 6 -8 10 -11 10 -2 0
-4 -4 -4 -10z"/>
<path d="M2790 4700 c0 -5 5 -10 11 -10 5 0 7 5 4 10 -3 6 -8 10 -11 10 -2 0
-4 -4 -4 -10z"/>
<path d="M2856 4698 c3 -4 14 -6 24 -5 31 5 32 13 1 12 -16 0 -27 -3 -25 -7z"/>
<path d="M3150 4700 c-9 -6 -10 -10 -3 -10 6 0 15 5 18 10 8 12 4 12 -15 0z"/>
<path d="M3193 4695 c0 -8 4 -12 9 -9 5 3 6 10 3 15 -9 13 -12 11 -12 -6z"/>
<path d="M3257 4699 c7 -7 15 -10 18 -7 3 3 -2 9 -12 12 -14 6 -15 5 -6 -5z"/>
<path d="M3354 4698 c-4 -5 -3 -12 0 -15 3 -4 6 -1 6 6 0 7 4 10 9 6 5 -3 12
-2 15 3 3 5 -2 9 -10 9 -8 0 -17 -4 -20 -9z"/>
<path d="M3590 4700 c0 -5 5 -10 11 -10 5 0 7 5 4 10 -3 6 -8 10 -11 10 -2 0
-4 -4 -4 -10z"/>
<path d="M3750 4700 c0 -5 5 -10 11 -10 5 0 7 5 4 10 -3 6 -8 10 -11 10 -2 0
-4 -4 -4 -10z"/>
<path d="M3817 4699 c7 -7 15 -10 18 -7 3 3 -2 9 -12 12 -14 6 -15 5 -6 -5z"/>
<path d="M3950 4700 c-9 -6 -10 -10 -3 -10 6 0 15 5 18 10 8 12 4 12 -15 0z"/>
<path d="M3993 4695 c0 -8 4 -12 9 -9 5 3 6 10 3 15 -9 13 -12 11 -12 -6z"/>
<path d="M4057 4699 c7 -7 15 -10 18 -7 3 3 -2 9 -12 12 -14 6 -15 5 -6 -5z"/>
<path d="M4270 4700 c-12 -7 -10 -9 7 -7 12 0 19 5 17 9 -6 10 -6 10 -24 -2z"/>
<path d="M4313 4695 c0 -8 4 -12 9 -9 5 3 6 10 3 15 -9 13 -12 11 -12 -6z"/>
<path d="M4410 4701 c0 -6 4 -13 10 -16 6 -3 7 1 4 9 -7 18 -14 21 -14 7z"/>
<path d="M1748 4693 c6 -2 18 -2 25 0 6 3 1 5 -13 5 -14 0 -19 -2 -12 -5z"/>
<path d="M2550 4690 c0 -5 7 -7 15 -4 8 4 15 8 15 10 0 2 -7 4 -15 4 -8 0 -15
-4 -15 -10z"/>
<path d="M2708 4693 c6 -2 18 -2 25 0 6 3 1 5 -13 5 -14 0 -19 -2 -12 -5z"/>
<path d="M3668 4693 c6 -2 18 -2 25 0 6 3 1 5 -13 5 -14 0 -19 -2 -12 -5z"/>
<path d="M838 4683 c7 -3 16 -2 19 1 4 3 -2 6 -13 5 -11 0 -14 -3 -6 -6z"/>
<path d="M1638 4683 c7 -3 16 -2 19 1 4 3 -2 6 -13 5 -11 0 -14 -3 -6 -6z"/>
<path d="M1708 4683 c7 -3 16 -2 19 1 4 3 -2 6 -13 5 -11 0 -14 -3 -6 -6z"/>
<path d="M1798 4683 c7 -3 16 -2 19 1 4 3 -2 6 -13 5 -11 0 -14 -3 -6 -6z"/>
<path d="M2598 4683 c7 -3 16 -2 19 1 4 3 -2 6 -13 5 -11 0 -14 -3 -6 -6z"/>
<path d="M2668 4683 c7 -3 16 -2 19 1 4 3 -2 6 -13 5 -11 0 -14 -3 -6 -6z"/>
<path d="M2758 4683 c7 -3 16 -2 19 1 4 3 -2 6 -13 5 -11 0 -14 -3 -6 -6z"/>
<path d="M3558 4683 c7 -3 16 -2 19 1 4 3 -2 6 -13 5 -11 0 -14 -3 -6 -6z"/>
<path d="M3628 4683 c7 -3 16 -2 19 1 4 3 -2 6 -13 5 -11 0 -14 -3 -6 -6z"/>
<path d="M3718 4683 c7 -3 16 -2 19 1 4 3 -2 6 -13 5 -11 0 -14 -3 -6 -6z"/>
<path d="M4348 4683 c7 -3 16 -2 19 1 4 3 -2 6 -13 5 -11 0 -14 -3 -6 -6z"/>
<path d="M4445 4680 c-3 -6 1 -7 9 -4 18 7 21 14 7 14 -6 0 -13 -4 -16 -10z"/>
<path d="M4490 4680 c0 -5 5 -10 11 -10 5 0 7 5 4 10 -3 6 -8 10 -11 10 -2 0
-4 -4 -4 -10z"/>
<path d="M510 4599 c0 -5 5 -7 10 -4 6 3 10 8 10 11 0 2 -4 4 -10 4 -5 0 -10
-5 -10 -11z"/>
<path d="M444 4494 c-18 -14 -18 -15 4 -4 12 6 22 13 22 15 0 8 -5 6 -26 -11z"/>
<path d="M399 4353 c-13 -16 -12 -17 4 -4 16 13 21 21 13 21 -2 0 -10 -8 -17
-17z"/>
<path d="M4692 4330 c-7 -11 -8 -20 -3 -20 9 0 24 30 18 36 -1 2 -8 -6 -15
-16z"/>
<path d="M419 4328 c-6 -21 -5 -37 2 -32 5 3 7 9 4 14 -3 4 1 11 7 13 10 4 10
6 1 6 -7 1 -13 0 -14 -1z"/>
<path d="M4690 4231 c0 -6 4 -13 10 -16 6 -3 7 1 4 9 -7 18 -14 21 -14 7z"/>
<path d="M4686 4162 c-3 -5 1 -9 9 -9 8 0 12 4 9 9 -3 4 -7 8 -9 8 -2 0 -6 -4
-9 -8z"/>
<path d="M431 4114 c0 -11 3 -14 6 -6 3 7 2 16 -1 19 -3 4 -6 -2 -5 -13z"/>
<path d="M4695 4119 c-4 -6 -5 -12 -2 -15 2 -3 7 2 10 11 7 17 1 20 -8 4z"/>
<path d="M415 4080 c3 -5 8 -10 11 -10 2 0 4 5 4 10 0 6 -5 10 -11 10 -5 0 -7
-4 -4 -10z"/>
<path d="M431 4044 c0 -11 3 -14 6 -6 3 7 2 16 -1 19 -3 4 -6 -2 -5 -13z"/>
<path d="M422 4000 c0 -14 2 -19 5 -12 2 6 2 18 0 25 -3 6 -5 1 -5 -13z"/>
<path d="M431 3954 c0 -11 3 -14 6 -6 3 7 2 16 -1 19 -3 4 -6 -2 -5 -13z"/>
<path d="M415 3920 c3 -5 8 -10 11 -10 2 0 4 5 4 10 0 6 -5 10 -11 10 -5 0 -7
-4 -4 -10z"/>
<path d="M416 3857 c3 -10 9 -15 12 -12 3 3 0 11 -7 18 -10 9 -11 8 -5 -6z"/>
<path d="M4696 3861 c-3 -5 2 -15 12 -22 15 -12 16 -12 5 2 -7 9 -10 19 -6 22
3 4 4 7 0 7 -3 0 -8 -4 -11 -9z"/>
<path d="M416 3723 c-6 -14 -5 -15 5 -6 7 7 10 15 7 18 -3 3 -9 -2 -12 -12z"/>
<path d="M4695 3700 c-3 -5 -3 -10 2 -10 4 0 1 -5 -7 -11 -12 -8 -12 -10 -1
-7 8 2 15 12 17 21 3 19 -2 22 -11 7z"/>
<path d="M416 3678 c3 -5 10 -6 15 -3 13 9 11 12 -6 12 -8 0 -12 -4 -9 -9z"/>
<path d="M416 3617 c3 -10 9 -15 12 -12 3 3 0 11 -7 18 -10 9 -11 8 -5 -6z"/>
<path d="M4690 3591 c0 -6 4 -13 10 -16 6 -3 7 1 4 9 -7 18 -14 21 -14 7z"/>
<path d="M4686 3522 c-3 -5 1 -9 9 -9 8 0 12 4 9 9 -3 4 -7 8 -9 8 -2 0 -6 -4
-9 -8z"/>
<path d="M4695 3479 c-4 -6 -5 -12 -2 -15 2 -3 7 2 10 11 7 17 1 20 -8 4z"/>
<path d="M416 3403 c-6 -14 -5 -15 5 -6 7 7 10 15 7 18 -3 3 -9 -2 -12 -12z"/>
<path d="M416 3358 c3 -5 10 -6 15 -3 13 9 11 12 -6 12 -8 0 -12 -4 -9 -9z"/>
<path d="M416 3297 c3 -10 9 -15 12 -12 3 3 0 11 -7 18 -10 9 -11 8 -5 -6z"/>
<path d="M4696 3221 c-3 -5 2 -15 12 -22 15 -12 16 -12 5 2 -7 9 -10 19 -6 22
3 4 4 7 0 7 -3 0 -8 -4 -11 -9z"/>
<path d="M420 3195 c0 -8 2 -15 4 -15 2 0 6 7 10 15 3 8 1 15 -4 15 -6 0 -10
-7 -10 -15z"/>
<path d="M431 3154 c0 -11 3 -14 6 -6 3 7 2 16 -1 19 -3 4 -6 -2 -5 -13z"/>
<path d="M415 3120 c3 -5 8 -10 11 -10 2 0 4 5 4 10 0 6 -5 10 -11 10 -5 0 -7
-4 -4 -10z"/>
<path d="M431 3084 c0 -11 3 -14 6 -6 3 7 2 16 -1 19 -3 4 -6 -2 -5 -13z"/>
<path d="M4695 3060 c-3 -5 -3 -10 2 -10 4 0 1 -5 -7 -11 -12 -8 -12 -10 -1
-7 8 2 15 12 17 21 3 19 -2 22 -11 7z"/>
<path d="M422 3040 c0 -14 2 -19 5 -12 2 6 2 18 0 25 -3 6 -5 1 -5 -13z"/>
<path d="M431 2994 c0 -11 3 -14 6 -6 3 7 2 16 -1 19 -3 4 -6 -2 -5 -13z"/>
<path d="M415 2960 c3 -5 8 -10 11 -10 2 0 4 5 4 10 0 6 -5 10 -11 10 -5 0 -7
-4 -4 -10z"/>
<path d="M4690 2951 c0 -6 4 -13 10 -16 6 -3 7 1 4 9 -7 18 -14 21 -14 7z"/>
<path d="M415 2879 c-1 -31 7 -30 12 1 1 10 -1 21 -5 24 -4 2 -7 -9 -7 -25z"/>
<path d="M4686 2882 c-3 -5 1 -9 9 -9 8 0 12 4 9 9 -3 4 -7 8 -9 8 -2 0 -6 -4
-9 -8z"/>
<path d="M4695 2839 c-4 -6 -5 -12 -2 -15 2 -3 7 2 10 11 7 17 1 20 -8 4z"/>
<path d="M416 2603 c-6 -14 -5 -15 5 -6 7 7 10 15 7 18 -3 3 -9 -2 -12 -12z"/>
<path d="M4696 2581 c-3 -5 2 -15 12 -22 15 -12 16 -12 5 2 -7 9 -10 19 -6 22
3 4 4 7 0 7 -3 0 -8 -4 -11 -9z"/>
<path d="M416 2558 c3 -5 10 -6 15 -3 13 9 11 12 -6 12 -8 0 -12 -4 -9 -9z"/>
<path d="M416 2497 c3 -10 9 -15 12 -12 3 3 0 11 -7 18 -10 9 -11 8 -5 -6z"/>
<path d="M4695 2420 c-3 -5 -3 -10 2 -10 4 0 1 -5 -7 -11 -12 -8 -12 -10 -1
-7 8 2 15 12 17 21 3 19 -2 22 -11 7z"/>
<path d="M419 2408 c-6 -21 -5 -37 2 -32 5 3 7 9 4 14 -3 4 1 11 7 13 10 4 10
6 1 6 -7 1 -13 0 -14 -1z"/>
<path d="M4690 2311 c0 -6 4 -13 10 -16 6 -3 7 1 4 9 -7 18 -14 21 -14 7z"/>
<path d="M4686 2242 c-3 -5 1 -9 9 -9 8 0 12 4 9 9 -3 4 -7 8 -9 8 -2 0 -6 -4
-9 -8z"/>
<path d="M431 2194 c0 -11 3 -14 6 -6 3 7 2 16 -1 19 -3 4 -6 -2 -5 -13z"/>
<path d="M4695 2199 c-4 -6 -5 -12 -2 -15 2 -3 7 2 10 11 7 17 1 20 -8 4z"/>
<path d="M415 2160 c3 -5 8 -10 11 -10 2 0 4 5 4 10 0 6 -5 10 -11 10 -5 0 -7
-4 -4 -10z"/>
<path d="M431 2124 c0 -11 3 -14 6 -6 3 7 2 16 -1 19 -3 4 -6 -2 -5 -13z"/>
<path d="M422 2080 c0 -14 2 -19 5 -12 2 6 2 18 0 25 -3 6 -5 1 -5 -13z"/>
<path d="M431 2034 c0 -11 3 -14 6 -6 3 7 2 16 -1 19 -3 4 -6 -2 -5 -13z"/>
<path d="M415 2000 c3 -5 8 -10 11 -10 2 0 4 5 4 10 0 6 -5 10 -11 10 -5 0 -7
-4 -4 -10z"/>
<path d="M416 1937 c3 -10 9 -15 12 -12 3 3 0 11 -7 18 -10 9 -11 8 -5 -6z"/>
<path d="M4696 1941 c-3 -5 2 -15 12 -22 15 -12 16 -12 5 2 -7 9 -10 19 -6 22
3 4 4 7 0 7 -3 0 -8 -4 -11 -9z"/>
<path d="M416 1803 c-6 -14 -5 -15 5 -6 7 7 10 15 7 18 -3 3 -9 -2 -12 -12z"/>
<path d="M4695 1780 c-3 -5 -3 -10 2 -10 4 0 1 -5 -7 -11 -12 -8 -12 -10 -1
-7 8 2 15 12 17 21 3 19 -2 22 -11 7z"/>
<path d="M416 1758 c3 -5 10 -6 15 -3 13 9 11 12 -6 12 -8 0 -12 -4 -9 -9z"/>
<path d="M416 1697 c3 -10 9 -15 12 -12 3 3 0 11 -7 18 -10 9 -11 8 -5 -6z"/>
<path d="M4690 1671 c0 -6 4 -13 10 -16 6 -3 7 1 4 9 -7 18 -14 21 -14 7z"/>
<path d="M4686 1602 c-3 -5 1 -9 9 -9 8 0 12 4 9 9 -3 4 -7 8 -9 8 -2 0 -6 -4
-9 -8z"/>
<path d="M4695 1559 c-4 -6 -5 -12 -2 -15 2 -3 7 2 10 11 7 17 1 20 -8 4z"/>
<path d="M416 1483 c-6 -14 -5 -15 5 -6 7 7 10 15 7 18 -3 3 -9 -2 -12 -12z"/>
<path d="M416 1438 c3 -5 10 -6 15 -3 13 9 11 12 -6 12 -8 0 -12 -4 -9 -9z"/>
<path d="M416 1377 c3 -10 9 -15 12 -12 3 3 0 11 -7 18 -10 9 -11 8 -5 -6z"/>
<path d="M4696 1301 c-3 -5 2 -15 12 -22 15 -12 16 -12 5 2 -7 9 -10 19 -6 22
3 4 4 7 0 7 -3 0 -8 -4 -11 -9z"/>
<path d="M420 1275 c0 -8 2 -15 4 -15 2 0 6 7 10 15 3 8 1 15 -4 15 -6 0 -10
-7 -10 -15z"/>
<path d="M431 1234 c0 -11 3 -14 6 -6 3 7 2 16 -1 19 -3 4 -6 -2 -5 -13z"/>
<path d="M415 1200 c3 -5 8 -10 11 -10 2 0 4 5 4 10 0 6 -5 10 -11 10 -5 0 -7
-4 -4 -10z"/>
<path d="M431 1164 c0 -11 3 -14 6 -6 3 7 2 16 -1 19 -3 4 -6 -2 -5 -13z"/>
<path d="M4695 1140 c-3 -5 -3 -10 2 -10 4 0 1 -5 -7 -11 -12 -8 -12 -10 -1
-7 8 2 15 12 17 21 3 19 -2 22 -11 7z"/>
<path d="M422 1120 c0 -14 2 -19 5 -12 2 6 2 18 0 25 -3 6 -5 1 -5 -13z"/>
<path d="M431 1074 c0 -11 3 -14 6 -6 3 7 2 16 -1 19 -3 4 -6 -2 -5 -13z"/>
<path d="M415 1040 c3 -5 8 -10 11 -10 2 0 4 5 4 10 0 6 -5 10 -11 10 -5 0 -7
-4 -4 -10z"/>
<path d="M4690 1031 c0 -6 4 -13 10 -16 6 -3 7 1 4 9 -7 18 -14 21 -14 7z"/>
<path d="M415 959 c-1 -31 7 -30 12 1 1 10 -1 21 -5 24 -4 2 -7 -9 -7 -25z"/>
<path d="M4686 962 c-3 -5 1 -9 9 -9 8 0 12 4 9 9 -3 4 -7 8 -9 8 -2 0 -6 -4
-9 -8z"/>
<path d="M4695 919 c-4 -6 -5 -12 -2 -15 2 -3 7 2 10 11 7 17 1 20 -8 4z"/>
<path d="M421 791 c-8 -5 -9 -11 -3 -15 5 -3 12 1 16 9 6 17 6 18 -13 6z"/>
<path d="M4693 725 c0 -8 4 -12 9 -9 5 3 6 10 3 15 -9 13 -12 11 -12 -6z"/>
<path d="M4679 593 c-13 -16 -12 -17 4 -4 16 13 21 21 13 21 -2 0 -10 -8 -17
-17z"/>
<path d="M4593 485 c0 -8 4 -12 9 -9 5 3 6 10 3 15 -9 13 -12 11 -12 -6z"/>
<path d="M617 449 c7 -7 15 -10 18 -7 3 3 -2 9 -12 12 -14 6 -15 5 -6 -5z"/>
<path d="M4430 436 c0 -8 4 -17 9 -20 5 -4 7 3 4 14 -6 23 -13 26 -13 6z"/>
<path d="M908 433 c7 -3 16 -2 19 1 4 3 -2 6 -13 5 -11 0 -14 -3 -6 -6z"/>
<path d="M1120 429 c0 -5 -4 -8 -9 -4 -5 3 -12 1 -15 -4 -4 -5 2 -8 11 -7 15
3 33 26 19 26 -3 0 -6 -5 -6 -11z"/>
<path d="M1275 431 c-3 -5 -2 -12 3 -15 5 -3 9 1 9 9 0 17 -3 19 -12 6z"/>
<path d="M1708 433 c7 -3 16 -2 19 1 4 3 -2 6 -13 5 -11 0 -14 -3 -6 -6z"/>
<path d="M1798 433 c7 -3 16 -2 19 1 4 3 -2 6 -13 5 -11 0 -14 -3 -6 -6z"/>
<path d="M1868 433 c7 -3 16 -2 19 1 4 3 -2 6 -13 5 -11 0 -14 -3 -6 -6z"/>
<path d="M1910 430 c-13 -8 -12 -10 3 -10 9 0 17 5 17 10 0 12 -1 12 -20 0z"/>
<path d="M2075 431 c-3 -5 -2 -12 3 -15 5 -3 9 1 9 9 0 17 -3 19 -12 6z"/>
<path d="M2395 431 c-3 -5 -2 -12 3 -15 5 -3 9 1 9 9 0 17 -3 19 -12 6z"/>
<path d="M2668 433 c7 -3 16 -2 19 1 4 3 -2 6 -13 5 -11 0 -14 -3 -6 -6z"/>
<path d="M2758 433 c7 -3 16 -2 19 1 4 3 -2 6 -13 5 -11 0 -14 -3 -6 -6z"/>
<path d="M2828 433 c7 -3 16 -2 19 1 4 3 -2 6 -13 5 -11 0 -14 -3 -6 -6z"/>
<path d="M3040 429 c0 -5 -4 -8 -9 -4 -5 3 -12 1 -15 -4 -4 -5 2 -8 11 -7 15
3 33 26 19 26 -3 0 -6 -5 -6 -11z"/>
<path d="M3195 431 c-3 -5 -2 -12 3 -15 5 -3 9 1 9 9 0 17 -3 19 -12 6z"/>
<path d="M3628 433 c7 -3 16 -2 19 1 4 3 -2 6 -13 5 -11 0 -14 -3 -6 -6z"/>
<path d="M3718 433 c7 -3 16 -2 19 1 4 3 -2 6 -13 5 -11 0 -14 -3 -6 -6z"/>
<path d="M3788 433 c7 -3 16 -2 19 1 4 3 -2 6 -13 5 -11 0 -14 -3 -6 -6z"/>
<path d="M3830 430 c-13 -8 -12 -10 3 -10 9 0 17 5 17 10 0 12 -1 12 -20 0z"/>
<path d="M3995 431 c-3 -5 -2 -12 3 -15 5 -3 9 1 9 9 0 17 -3 19 -12 6z"/>
<path d="M734 418 c-3 -4 5 -5 17 -3 30 6 36 14 9 12 -12 -1 -24 -5 -26 -9z"/>
<path d="M875 420 c3 -5 8 -10 11 -10 2 0 4 5 4 10 0 6 -5 10 -11 10 -5 0 -7
-4 -4 -10z"/>
<path d="M1200 426 c0 -2 7 -7 16 -10 8 -3 12 -2 9 4 -6 10 -25 14 -25 6z"/>
<path d="M1315 420 c-3 -6 1 -7 9 -4 18 7 21 14 7 14 -6 0 -13 -4 -16 -10z"/>
<path d="M1575 420 c-2 -3 9 -6 25 -5 15 0 26 3 24 7 -5 8 -44 6 -49 -2z"/>
<path d="M1675 420 c3 -5 8 -10 11 -10 2 0 4 5 4 10 0 6 -5 10 -11 10 -5 0 -7
-4 -4 -10z"/>
<path d="M1748 423 c6 -2 18 -2 25 0 6 3 1 5 -13 5 -14 0 -19 -2 -12 -5z"/>
<path d="M1835 420 c3 -5 8 -10 11 -10 2 0 4 5 4 10 0 6 -5 10 -11 10 -5 0 -7
-4 -4 -10z"/>
<path d="M2000 426 c0 -2 7 -7 16 -10 8 -3 12 -2 9 4 -6 10 -25 14 -25 6z"/>
<path d="M2115 420 c-3 -6 1 -7 9 -4 18 7 21 14 7 14 -6 0 -13 -4 -16 -10z"/>
<path d="M2320 426 c0 -2 7 -7 16 -10 8 -3 12 -2 9 4 -6 10 -25 14 -25 6z"/>
<path d="M2435 420 c-3 -6 1 -7 9 -4 18 7 21 14 7 14 -6 0 -13 -4 -16 -10z"/>
<path d="M2560 426 c0 -2 7 -7 16 -10 8 -3 12 -2 9 4 -6 10 -25 14 -25 6z"/>
<path d="M2635 420 c3 -5 8 -10 11 -10 2 0 4 5 4 10 0 6 -5 10 -11 10 -5 0 -7
-4 -4 -10z"/>
<path d="M2708 423 c6 -2 18 -2 25 0 6 3 1 5 -13 5 -14 0 -19 -2 -12 -5z"/>
<path d="M2795 420 c3 -5 8 -10 11 -10 2 0 4 5 4 10 0 6 -5 10 -11 10 -5 0 -7
-4 -4 -10z"/>
<path d="M3120 426 c0 -2 7 -7 16 -10 8 -3 12 -2 9 4 -6 10 -25 14 -25 6z"/>
<path d="M3235 420 c-3 -6 1 -7 9 -4 18 7 21 14 7 14 -6 0 -13 -4 -16 -10z"/>
<path d="M3495 420 c-2 -3 9 -6 25 -5 15 0 26 3 24 7 -5 8 -44 6 -49 -2z"/>
<path d="M3595 420 c3 -5 8 -10 11 -10 2 0 4 5 4 10 0 6 -5 10 -11 10 -5 0 -7
-4 -4 -10z"/>
<path d="M3668 423 c6 -2 18 -2 25 0 6 3 1 5 -13 5 -14 0 -19 -2 -12 -5z"/>
<path d="M3755 420 c3 -5 8 -10 11 -10 2 0 4 5 4 10 0 6 -5 10 -11 10 -5 0 -7
-4 -4 -10z"/>
<path d="M3920 426 c0 -2 7 -7 16 -10 8 -3 12 -2 9 4 -6 10 -25 14 -25 6z"/>
<path d="M4035 420 c-3 -6 1 -7 9 -4 18 7 21 14 7 14 -6 0 -13 -4 -16 -10z"/>
<path d="M4240 426 c0 -2 7 -7 16 -10 8 -3 12 -2 9 4 -6 10 -25 14 -25 6z"/>
</g>
</svg>
